<mxfile host="app.diagrams.net" modified="2023-06-08T05:23:12.305Z" agent="Mozilla/5.0 (Windows NT 10.0; Win64; x64) AppleWebKit/537.36 (KHTML, like Gecko) Chrome/114.0.0.0 Safari/537.36" etag="owlBG1_Lsc2l0k6puQc6" version="21.3.7" type="github" pages="2">
  <diagram name="Context User" id="PffZLn2qhV7RO9Ww-wiQ">
    <mxGraphModel dx="733" dy="412" grid="1" gridSize="10" guides="1" tooltips="1" connect="1" arrows="1" fold="1" page="1" pageScale="1" pageWidth="850" pageHeight="1100" math="0" shadow="0">
      <root>
        <mxCell id="0" />
        <mxCell id="1" parent="0" />
        <mxCell id="Au8QZbGvT433nqFfSNi3-16" style="edgeStyle=orthogonalEdgeStyle;rounded=0;orthogonalLoop=1;jettySize=auto;html=1;exitX=0;exitY=1;exitDx=0;exitDy=0;entryX=0.5;entryY=1;entryDx=0;entryDy=0;" edge="1" parent="1" source="Au8QZbGvT433nqFfSNi3-1" target="Au8QZbGvT433nqFfSNi3-4">
          <mxGeometry relative="1" as="geometry">
            <Array as="points">
              <mxPoint x="431" y="309" />
              <mxPoint x="225" y="309" />
            </Array>
          </mxGeometry>
        </mxCell>
        <mxCell id="Au8QZbGvT433nqFfSNi3-19" style="edgeStyle=orthogonalEdgeStyle;rounded=0;orthogonalLoop=1;jettySize=auto;html=1;exitX=0.5;exitY=1;exitDx=0;exitDy=0;entryX=0.25;entryY=1;entryDx=0;entryDy=0;" edge="1" parent="1" source="Au8QZbGvT433nqFfSNi3-1" target="Au8QZbGvT433nqFfSNi3-4">
          <mxGeometry relative="1" as="geometry">
            <Array as="points">
              <mxPoint x="495" y="349" />
              <mxPoint x="195" y="349" />
            </Array>
          </mxGeometry>
        </mxCell>
        <mxCell id="Au8QZbGvT433nqFfSNi3-1" value="Sistem Informasi Laboratorium Instrumentasi Nuklir" style="ellipse;whiteSpace=wrap;html=1;" vertex="1" parent="1">
          <mxGeometry x="505" y="173" width="180" height="130" as="geometry" />
        </mxCell>
        <mxCell id="Au8QZbGvT433nqFfSNi3-7" style="edgeStyle=orthogonalEdgeStyle;rounded=0;orthogonalLoop=1;jettySize=auto;html=1;exitX=0.75;exitY=0;exitDx=0;exitDy=0;entryX=0.222;entryY=0.077;entryDx=0;entryDy=0;entryPerimeter=0;" edge="1" parent="1" source="Au8QZbGvT433nqFfSNi3-4" target="Au8QZbGvT433nqFfSNi3-1">
          <mxGeometry relative="1" as="geometry" />
        </mxCell>
        <mxCell id="Au8QZbGvT433nqFfSNi3-8" style="edgeStyle=orthogonalEdgeStyle;rounded=0;orthogonalLoop=1;jettySize=auto;html=1;exitX=1;exitY=0.25;exitDx=0;exitDy=0;entryX=0.022;entryY=0.377;entryDx=0;entryDy=0;entryPerimeter=0;" edge="1" parent="1" source="Au8QZbGvT433nqFfSNi3-4" target="Au8QZbGvT433nqFfSNi3-1">
          <mxGeometry relative="1" as="geometry">
            <mxPoint x="395" y="229" as="targetPoint" />
          </mxGeometry>
        </mxCell>
        <mxCell id="Au8QZbGvT433nqFfSNi3-9" style="edgeStyle=orthogonalEdgeStyle;rounded=0;orthogonalLoop=1;jettySize=auto;html=1;exitX=1;exitY=0.75;exitDx=0;exitDy=0;entryX=-0.007;entryY=0.618;entryDx=0;entryDy=0;entryPerimeter=0;startArrow=classic;startFill=1;endArrow=none;endFill=0;" edge="1" parent="1" source="Au8QZbGvT433nqFfSNi3-4" target="Au8QZbGvT433nqFfSNi3-1">
          <mxGeometry relative="1" as="geometry" />
        </mxCell>
        <mxCell id="Au8QZbGvT433nqFfSNi3-13" style="edgeStyle=orthogonalEdgeStyle;rounded=0;orthogonalLoop=1;jettySize=auto;html=1;exitX=0.5;exitY=0;exitDx=0;exitDy=0;entryX=0.5;entryY=0;entryDx=0;entryDy=0;" edge="1" parent="1" source="Au8QZbGvT433nqFfSNi3-4" target="Au8QZbGvT433nqFfSNi3-1">
          <mxGeometry relative="1" as="geometry">
            <Array as="points">
              <mxPoint x="225" y="139" />
              <mxPoint x="495" y="139" />
            </Array>
          </mxGeometry>
        </mxCell>
        <mxCell id="Au8QZbGvT433nqFfSNi3-4" value="Pengguna biasa, Admin, Kelapa Lab" style="rounded=0;whiteSpace=wrap;html=1;" vertex="1" parent="1">
          <mxGeometry x="90" y="214" width="195" height="60" as="geometry" />
        </mxCell>
        <mxCell id="Au8QZbGvT433nqFfSNi3-10" value="Login/Logout" style="text;html=1;align=center;verticalAlign=middle;resizable=0;points=[];autosize=1;strokeColor=none;fillColor=none;" vertex="1" parent="1">
          <mxGeometry x="305" y="207" width="90" height="30" as="geometry" />
        </mxCell>
        <mxCell id="Au8QZbGvT433nqFfSNi3-11" value="Pesan Login/Logout" style="text;html=1;align=center;verticalAlign=middle;resizable=0;points=[];autosize=1;strokeColor=none;fillColor=none;" vertex="1" parent="1">
          <mxGeometry x="285" y="257" width="130" height="30" as="geometry" />
        </mxCell>
        <mxCell id="Au8QZbGvT433nqFfSNi3-12" value="Form Pencatatan Penerimaan dosis radiasi&lt;br style=&quot;font-size: 9px;&quot;&gt;Form Pencatatan Penggunaan Detektor&lt;br style=&quot;font-size: 9px;&quot;&gt;Form Pencatatan Kunjungan" style="text;html=1;align=left;verticalAlign=middle;resizable=0;points=[];autosize=1;strokeColor=none;fillColor=none;fontSize=9;" vertex="1" parent="1">
          <mxGeometry x="254" y="145" width="200" height="50" as="geometry" />
        </mxCell>
        <mxCell id="Au8QZbGvT433nqFfSNi3-15" value="Form Peminjaman&lt;br&gt;Form Laporan Kerusakan" style="text;html=1;align=left;verticalAlign=middle;resizable=0;points=[];autosize=1;strokeColor=none;fillColor=none;fontSize=9;" vertex="1" parent="1">
          <mxGeometry x="255" y="100" width="130" height="40" as="geometry" />
        </mxCell>
        <mxCell id="Au8QZbGvT433nqFfSNi3-17" value="Informasi Inventaris Barang&lt;br&gt;Informasi Inventaris Sumber Radioaktif&lt;br&gt;Informasi Agenda&lt;br&gt;Informasi Perawatan&lt;br&gt;Informasi Dokumen Laboratorium&lt;br&gt;Informasi Peminjaman&lt;br&gt;Informasi Laporan kerusakan" style="text;html=1;align=left;verticalAlign=middle;resizable=0;points=[];autosize=1;strokeColor=none;fillColor=none;fontSize=9;" vertex="1" parent="1">
          <mxGeometry x="254" y="345" width="180" height="90" as="geometry" />
        </mxCell>
        <mxCell id="Au8QZbGvT433nqFfSNi3-18" value="Catatan Pengajuan Pinjaman&lt;br&gt;Catatan Pengajuan Laporan Kerusakan" style="text;html=1;align=left;verticalAlign=middle;resizable=0;points=[];autosize=1;strokeColor=none;fillColor=none;fontSize=9;" vertex="1" parent="1">
          <mxGeometry x="254" y="303" width="180" height="40" as="geometry" />
        </mxCell>
      </root>
    </mxGraphModel>
  </diagram>
  <diagram id="Mboim6EvzBA2eOI9mvKp" name="Context - admin">
    <mxGraphModel dx="765" dy="430" grid="1" gridSize="10" guides="1" tooltips="1" connect="1" arrows="1" fold="1" page="1" pageScale="1" pageWidth="1169" pageHeight="827" math="0" shadow="0">
      <root>
        <mxCell id="0" />
        <mxCell id="1" parent="0" />
        <mxCell id="BPwjdVKXDmtr6PWgWk1c-24" style="edgeStyle=orthogonalEdgeStyle;rounded=0;orthogonalLoop=1;jettySize=auto;html=1;exitX=0;exitY=1;exitDx=0;exitDy=0;entryX=0.854;entryY=1.005;entryDx=0;entryDy=0;entryPerimeter=0;" edge="1" parent="1" source="BPwjdVKXDmtr6PWgWk1c-3" target="BPwjdVKXDmtr6PWgWk1c-9">
          <mxGeometry relative="1" as="geometry">
            <Array as="points">
              <mxPoint x="746" y="315" />
              <mxPoint x="358" y="315" />
            </Array>
          </mxGeometry>
        </mxCell>
        <mxCell id="BPwjdVKXDmtr6PWgWk1c-3" value="Sistem Informasi Laboratorium Instrumentasi Nuklir" style="ellipse;whiteSpace=wrap;html=1;" vertex="1" parent="1">
          <mxGeometry x="710" y="178.5" width="245" height="157" as="geometry" />
        </mxCell>
        <mxCell id="BPwjdVKXDmtr6PWgWk1c-22" style="edgeStyle=orthogonalEdgeStyle;rounded=0;orthogonalLoop=1;jettySize=auto;html=1;exitX=0.75;exitY=0;exitDx=0;exitDy=0;entryX=0.288;entryY=0.052;entryDx=0;entryDy=0;entryPerimeter=0;" edge="1" parent="1" source="BPwjdVKXDmtr6PWgWk1c-9" target="BPwjdVKXDmtr6PWgWk1c-3">
          <mxGeometry relative="1" as="geometry">
            <Array as="points">
              <mxPoint x="339" y="175" />
              <mxPoint x="781" y="175" />
            </Array>
          </mxGeometry>
        </mxCell>
        <mxCell id="BPwjdVKXDmtr6PWgWk1c-23" style="edgeStyle=orthogonalEdgeStyle;rounded=0;orthogonalLoop=1;jettySize=auto;html=1;exitX=0.5;exitY=0;exitDx=0;exitDy=0;entryX=0.409;entryY=0.003;entryDx=0;entryDy=0;entryPerimeter=0;" edge="1" parent="1" source="BPwjdVKXDmtr6PWgWk1c-9" target="BPwjdVKXDmtr6PWgWk1c-3">
          <mxGeometry relative="1" as="geometry">
            <Array as="points">
              <mxPoint x="293" y="155" />
              <mxPoint x="810" y="155" />
            </Array>
          </mxGeometry>
        </mxCell>
        <mxCell id="BPwjdVKXDmtr6PWgWk1c-25" style="edgeStyle=orthogonalEdgeStyle;rounded=0;orthogonalLoop=1;jettySize=auto;html=1;exitX=0.75;exitY=1;exitDx=0;exitDy=0;entryX=0.327;entryY=0.997;entryDx=0;entryDy=0;entryPerimeter=0;startArrow=classic;startFill=1;endArrow=none;endFill=0;" edge="1" parent="1" source="BPwjdVKXDmtr6PWgWk1c-9" target="BPwjdVKXDmtr6PWgWk1c-3">
          <mxGeometry relative="1" as="geometry">
            <Array as="points">
              <mxPoint x="339" y="355" />
              <mxPoint x="790" y="355" />
            </Array>
          </mxGeometry>
        </mxCell>
        <mxCell id="BPwjdVKXDmtr6PWgWk1c-26" style="edgeStyle=orthogonalEdgeStyle;rounded=0;orthogonalLoop=1;jettySize=auto;html=1;exitX=0.25;exitY=0;exitDx=0;exitDy=0;entryX=0.556;entryY=-0.009;entryDx=0;entryDy=0;entryPerimeter=0;" edge="1" parent="1" source="BPwjdVKXDmtr6PWgWk1c-9" target="BPwjdVKXDmtr6PWgWk1c-3">
          <mxGeometry relative="1" as="geometry">
            <Array as="points">
              <mxPoint x="246" y="85" />
              <mxPoint x="846" y="85" />
            </Array>
          </mxGeometry>
        </mxCell>
        <mxCell id="BPwjdVKXDmtr6PWgWk1c-9" value="Admin, Kepala Lab" style="rounded=0;whiteSpace=wrap;html=1;" vertex="1" parent="1">
          <mxGeometry x="200" y="213" width="185" height="76" as="geometry" />
        </mxCell>
        <mxCell id="BPwjdVKXDmtr6PWgWk1c-13" value="Form Pengembalian" style="text;html=1;align=left;verticalAlign=middle;resizable=0;points=[];autosize=1;strokeColor=none;fillColor=none;fontSize=9;" vertex="1" parent="1">
          <mxGeometry x="454" y="158.5" width="100" height="20" as="geometry" />
        </mxCell>
        <mxCell id="BPwjdVKXDmtr6PWgWk1c-14" value="Informasi Pengembalian&lt;br&gt;Informasi Pengguna" style="text;html=1;align=left;verticalAlign=middle;resizable=0;points=[];autosize=1;strokeColor=none;fillColor=none;fontSize=9;" vertex="1" parent="1">
          <mxGeometry x="454" y="321" width="120" height="40" as="geometry" />
        </mxCell>
        <mxCell id="BPwjdVKXDmtr6PWgWk1c-16" value="Data Inventaris Barang&lt;br&gt;Data Inventaris Sumber Radioisotop&lt;br&gt;Data Agenda&lt;br&gt;Data Perawatan&lt;br&gt;Data Dokumen&lt;br&gt;Data Pengguna" style="text;html=1;align=left;verticalAlign=middle;resizable=0;points=[];autosize=1;strokeColor=none;fillColor=none;fontSize=9;" vertex="1" parent="1">
          <mxGeometry x="454" y="81" width="170" height="80" as="geometry" />
        </mxCell>
        <mxCell id="ofOHSE39GbBnu7AZ05PK-1" value="Verifikasi Peminjaman&lt;br&gt;Verifikasi Laporan Kerusakan&lt;br&gt;Data Analisis Kerusakan&lt;br&gt;Data Tindak Lanjut Laporan&lt;br&gt;Data Perbaikan Laporan" style="text;html=1;align=left;verticalAlign=middle;resizable=0;points=[];autosize=1;strokeColor=none;fillColor=none;fontSize=9;" vertex="1" parent="1">
          <mxGeometry x="454" y="20" width="140" height="70" as="geometry" />
        </mxCell>
        <mxCell id="hHkYYU5fMDL-HCLoYw5--10" style="edgeStyle=orthogonalEdgeStyle;rounded=0;orthogonalLoop=1;jettySize=auto;html=1;exitX=0;exitY=0.5;exitDx=0;exitDy=0;entryX=1;entryY=0.5;entryDx=0;entryDy=0;" edge="1" parent="1" source="hHkYYU5fMDL-HCLoYw5--4" target="hHkYYU5fMDL-HCLoYw5--5">
          <mxGeometry relative="1" as="geometry" />
        </mxCell>
        <mxCell id="hHkYYU5fMDL-HCLoYw5--4" value="Sistem Informasi Laboratorium Instrumentasi Nuklir" style="ellipse;whiteSpace=wrap;html=1;" vertex="1" parent="1">
          <mxGeometry x="717" y="460" width="245" height="157" as="geometry" />
        </mxCell>
        <mxCell id="hHkYYU5fMDL-HCLoYw5--7" style="edgeStyle=orthogonalEdgeStyle;rounded=0;orthogonalLoop=1;jettySize=auto;html=1;exitX=1;exitY=0.25;exitDx=0;exitDy=0;entryX=-0.001;entryY=0.379;entryDx=0;entryDy=0;entryPerimeter=0;" edge="1" parent="1" source="hHkYYU5fMDL-HCLoYw5--5" target="hHkYYU5fMDL-HCLoYw5--4">
          <mxGeometry relative="1" as="geometry" />
        </mxCell>
        <mxCell id="hHkYYU5fMDL-HCLoYw5--5" value="Admin, Kepala Lab" style="rounded=0;whiteSpace=wrap;html=1;" vertex="1" parent="1">
          <mxGeometry x="200" y="500.5" width="185" height="76" as="geometry" />
        </mxCell>
        <mxCell id="hHkYYU5fMDL-HCLoYw5--6" value="Informasi Inventaris Barang&lt;br&gt;Informasi Inventaris Sumber Radioisotop&lt;br&gt;Informasi Agenda&lt;br&gt;Informasi Perawatan&lt;br&gt;Informasi Dokumen&lt;br&gt;Informasi Laporan Kerusakan" style="text;html=1;align=left;verticalAlign=middle;resizable=0;points=[];autosize=1;strokeColor=none;fillColor=none;fontSize=9;" vertex="1" parent="1">
          <mxGeometry x="454" y="240" width="190" height="80" as="geometry" />
        </mxCell>
        <mxCell id="hHkYYU5fMDL-HCLoYw5--9" value="Persetujuan Laporan Kerusakan&lt;br&gt;Data Pemeriksaan akhir laporan kerusakan" style="text;html=1;align=left;verticalAlign=middle;resizable=0;points=[];autosize=1;strokeColor=none;fillColor=none;fontSize=9;" vertex="1" parent="1">
          <mxGeometry x="454" y="486" width="200" height="40" as="geometry" />
        </mxCell>
        <mxCell id="hHkYYU5fMDL-HCLoYw5--11" value="Informasi Laporan Kerusakan" style="text;html=1;align=left;verticalAlign=middle;resizable=0;points=[];autosize=1;strokeColor=none;fillColor=none;fontSize=9;" vertex="1" parent="1">
          <mxGeometry x="449" y="546.5" width="140" height="20" as="geometry" />
        </mxCell>
      </root>
    </mxGraphModel>
  </diagram>
</mxfile>
